HIERARCHY
ROOT joint_Root
{
	OFFSET 0.0 0.0 0.0
	CHANNELS 6 Xposition Yposition Zposition Zrotation Xrotation Yrotation 
	JOINT Hips
	{
		OFFSET -17.1583 93.1646 452.98
		CHANNELS 6 Xposition Yposition Zposition Zrotation Xrotation Yrotation 
		JOINT Spine
		{
			OFFSET 15.7357 0.0 0.0
			CHANNELS 6 Xposition Yposition Zposition Zrotation Xrotation Yrotation 
			JOINT Chest
			{
				OFFSET 8.98455 -0.406207 0.0
				CHANNELS 6 Xposition Yposition Zposition Zrotation Xrotation Yrotation 
				JOINT Neck
				{
					OFFSET 16.3773 0.0 0.0
					CHANNELS 6 Xposition Yposition Zposition Zrotation Xrotation Yrotation 
					JOINT Head
					{
						OFFSET 6.45672 0.0 0.0
						CHANNELS 6 Xposition Yposition Zposition Zrotation Xrotation Yrotation 
						End Site
						{
							OFFSET 0.0 0.0 0.0
						}
					}
				}
				JOINT Shoulder_L
				{
					OFFSET 12.9942 -0.242716 4.98039
					CHANNELS 6 Xposition Yposition Zposition Zrotation Xrotation Yrotation 
					JOINT UpperArm_L
					{
						OFFSET 5.34809 0.0 0.0
						CHANNELS 6 Xposition Yposition Zposition Zrotation Xrotation Yrotation 
						JOINT LowerArm_L
						{
							OFFSET 24.3286 1.87007e-05 0.0
							CHANNELS 6 Xposition Yposition Zposition Zrotation Xrotation Yrotation 
							JOINT Hand_L
							{
								OFFSET 22.2916 0.0 0.0
								CHANNELS 6 Xposition Yposition Zposition Zrotation Xrotation Yrotation 
								End Site
								{
									OFFSET 0.0 0.0 0.0
								}
							}
						}
					}
				}
				JOINT Shoulder_R
				{
					OFFSET 12.9945 -0.242716 -4.98039
					CHANNELS 6 Xposition Yposition Zposition Zrotation Xrotation Yrotation 
					JOINT UpperArm_R
					{
						OFFSET -5.34813 0.0 0.0
						CHANNELS 6 Xposition Yposition Zposition Zrotation Xrotation Yrotation 
						JOINT LowerArm_R
						{
							OFFSET -24.3289 0.000322201 0.0
							CHANNELS 6 Xposition Yposition Zposition Zrotation Xrotation Yrotation 
							JOINT Hand_R
							{
								OFFSET -22.2915 -0.000108084 0.0
								CHANNELS 6 Xposition Yposition Zposition Zrotation Xrotation Yrotation 
								End Site
								{
									OFFSET 0.0 0.0 0.0
								}
							}
						}
					}
				}
			}
		}
		JOINT UpperLeg_L
		{
			OFFSET -2.19248 -6.46944 0.0
			CHANNELS 6 Xposition Yposition Zposition Zrotation Xrotation Yrotation 
			JOINT LowerLeg_L
			{
				OFFSET 39.0811 0.0 -1.23785e-05
				CHANNELS 6 Xposition Yposition Zposition Zrotation Xrotation Yrotation 
				JOINT Foot_L
				{
					OFFSET 40.9854 0.0 -1.26872e-05
					CHANNELS 6 Xposition Yposition Zposition Zrotation Xrotation Yrotation 
					JOINT Toes_L
					{
						OFFSET 11.7543 0.0 0.0
						CHANNELS 6 Xposition Yposition Zposition Zrotation Xrotation Yrotation 
						End Site
						{
							OFFSET 0.0 0.0 0.0
						}
					}
				}
			}
		}
		JOINT UpperLeg_R
		{
			OFFSET -2.19251 6.46944 0.0
			CHANNELS 6 Xposition Yposition Zposition Zrotation Xrotation Yrotation 
			JOINT LowerLeg_R
			{
				OFFSET -39.0811 -0.00228153 -0.0401928
				CHANNELS 6 Xposition Yposition Zposition Zrotation Xrotation Yrotation 
				JOINT Foot_R
				{
					OFFSET -40.9854 0.0 0.0
					CHANNELS 6 Xposition Yposition Zposition Zrotation Xrotation Yrotation 
					JOINT Toes_R
					{
						OFFSET -11.7543 0.0 0.0
						CHANNELS 6 Xposition Yposition Zposition Zrotation Xrotation Yrotation 
						End Site
						{
							OFFSET 0.0 0.0 0.0
						}
					}
				}
			}
		}
	}
}
MOTION
Frames:	6
Frame Time:	0.0333333
0.000000 0.000000 0.000000 0.000000 0.000000 -0.000000 0.816085 92.775700 1.673060 89.403700 0.645351 2.678620 15.735700 0.000005 -0.000001 78.512100 87.148200 -73.065300 8.984550 -0.406207 -0.000000 -2.077420 -1.602610 10.863700 16.377300 -0.000001 -0.000001 -2.206480 1.491020 5.109720 6.456720 -0.000001 -0.000000 2.750770 4.180650 23.675800 12.994200 -0.242716 4.980390 -88.644100 -2.911350 -65.013300 5.348090 -0.000007 -0.000001 -52.516000 -51.406700 -71.731200 24.328600 0.000019 0.000005 0.000141 -1.343510 0.000000 22.291600 -0.000001 0.000005 20.810000 3.004440 37.043000 12.994500 -0.242716 -4.980390 89.161500 2.563140 -71.878200 -5.348130 -0.000001 -0.000004 -66.281100 8.687360 -0.952359 -24.328900 0.000322 -0.000009 1.398930 5.837500 -13.512200 -22.291500 -0.000108 -0.000004 5.110250 5.200680 2.702660 -2.192480 -6.469440 -0.000000 -174.970000 -5.683730 1.621250 39.081100 -0.000007 -0.000012 0.017956 -0.062614 16.001700 40.985400 -0.000006 -0.000013 0.407036 14.943200 -70.017500 11.754300 -0.000000 0.000003 -0.000608 0.177293 -9.385320 -2.192510 6.469440 -0.000001 174.713000 3.358950 -176.392000 -39.081100 -0.002282 -0.040193 0.028907 -0.111873 12.875800 -40.985400 0.000008 0.000006 -5.524400 5.855420 -69.506300 -11.754300 -0.000006 -0.000006 -0.010369 0.274041 -5.439080
0.000000 0.000000 0.000000 0.000000 0.000000 -0.000000 0.736340 92.797300 1.676680 89.341900 1.108650 2.460630 15.735700 0.000005 -0.000001 76.953500 87.245500 -71.631400 8.984550 -0.406207 -0.000000 -2.297880 -1.709810 10.609800 16.377300 -0.000001 -0.000001 -1.972880 1.781050 4.522030 6.456720 -0.000001 -0.000000 3.227210 4.388240 23.400100 12.994200 -0.242716 4.980390 -88.529300 -3.122280 -64.762400 5.348090 -0.000007 -0.000001 -49.131300 -51.479800 -73.071900 24.328600 0.000019 0.000005 -0.000074 -0.464998 0.000000 22.291600 -0.000001 0.000005 23.669800 3.128960 35.558700 12.994500 -0.242716 -4.980390 89.142000 2.613600 -71.819100 -5.348130 -0.000001 -0.000004 -66.068400 8.451160 -0.649474 -24.328900 0.000322 -0.000009 1.432910 6.572440 -12.336900 -22.291500 -0.000108 -0.000004 4.991840 5.185280 3.085390 -2.192480 -6.469440 -0.000000 -174.850000 -5.565160 1.376610 39.081100 -0.000007 -0.000012 0.016639 -0.058358 15.914600 40.985400 -0.000006 -0.000013 0.375062 15.262500 -70.029500 11.754300 -0.000000 0.000003 -0.000781 0.179873 -9.280510 -2.192510 6.469440 -0.000001 174.821000 3.571320 -176.441000 -39.081100 -0.002282 -0.040193 0.023935 -0.091799 12.648200 -40.985400 0.000008 0.000006 -5.990980 5.650780 -69.272800 -11.754300 -0.000006 -0.000006 -0.010388 0.274179 -5.433430
0.000000 0.000000 0.000000 0.000000 0.000000 -0.000000 0.668388 92.814800 1.686240 89.280300 1.393870 2.386160 15.735700 0.000005 -0.000001 75.960800 87.296300 -70.786200 8.984550 -0.406207 -0.000000 -2.419580 -1.770510 10.312400 16.377300 -0.000001 -0.000001 -1.661380 2.242390 3.907610 6.456720 -0.000001 -0.000000 3.541860 4.707290 23.272400 12.994200 -0.242716 4.980390 -88.403500 -3.330180 -64.368100 5.348090 -0.000007 -0.000001 -49.734900 -52.982600 -78.735000 24.328600 0.000019 0.000005 0.000114 -1.005290 0.000000 22.291600 -0.000001 0.000005 26.507000 3.311990 33.317800 12.994500 -0.242716 -4.980390 89.101500 2.733020 -71.793700 -5.348130 -0.000001 -0.000004 -65.830700 7.699570 -0.374785 -24.328900 0.000322 -0.000009 1.482990 7.283540 -11.549300 -22.291500 -0.000108 -0.000004 5.481780 5.173910 3.365080 -2.192480 -6.469440 -0.000000 -174.751000 -5.373470 1.308800 39.081100 -0.000007 -0.000012 0.014831 -0.052377 15.810200 40.985400 -0.000006 -0.000013 0.323208 15.358000 -69.975000 11.754300 -0.000000 0.000003 -0.000890 0.181465 -9.215810 -2.192510 6.469440 -0.000001 174.871000 3.767820 -176.351000 -39.081100 -0.002282 -0.040193 0.019047 -0.071406 12.409700 -40.985400 0.000008 0.000006 -6.419980 5.685720 -69.074200 -11.754300 -0.000006 -0.000006 -0.010457 0.274692 -5.412420
0.000000 0.000000 0.000000 0.000000 0.000000 -0.000000 0.607207 92.829400 1.710680 89.176900 1.536530 2.291770 15.735700 0.000005 -0.000001 76.132400 87.353900 -71.114800 8.984550 -0.406207 -0.000000 -2.533380 -1.718270 9.997910 16.377300 -0.000001 -0.000001 -1.409970 2.725540 3.384960 6.456720 -0.000001 -0.000000 3.806370 4.991030 23.184000 12.994200 -0.242716 4.980390 -88.247800 -3.566400 -63.813100 5.348090 -0.000007 -0.000001 -51.047800 -54.520200 -86.034100 24.328600 0.000019 0.000005 0.000337 1.223370 0.000000 22.291600 -0.000001 0.000005 28.159600 3.483750 31.159400 12.994500 -0.242716 -4.980390 89.116400 2.700260 -71.873800 -5.348130 -0.000001 -0.000004 -65.837900 6.718690 0.022964 -24.328900 0.000322 -0.000009 1.513610 7.545010 -11.385700 -22.291500 -0.000108 -0.000004 6.135560 5.169770 3.466160 -2.192480 -6.469440 -0.000000 -174.654000 -5.050080 1.226540 39.081100 -0.000007 -0.000012 0.014554 -0.051583 15.756100 40.985400 -0.000006 -0.000013 0.236842 15.133300 -69.982200 11.754300 -0.000000 0.000003 -0.000771 0.179726 -9.286450 -2.192510 6.469440 -0.000001 174.964000 4.072800 -176.285000 -39.081100 -0.002282 -0.040193 0.014852 -0.053593 12.127900 -40.985400 0.000008 0.000006 -6.650030 5.826030 -68.792000 -11.754300 -0.000006 -0.000006 -0.010290 0.273458 -5.462900
0.000000 0.000000 0.000000 0.000000 0.000000 -0.000000 0.577893 92.845200 1.734930 89.074400 1.499680 2.167910 15.735700 0.000005 -0.000001 78.036100 87.452200 -73.191900 8.984550 -0.406207 -0.000000 -2.699770 -1.497650 9.654120 16.377300 -0.000001 -0.000001 -1.136650 3.183590 2.846340 6.456720 -0.000001 -0.000000 3.997500 5.093070 23.325700 12.994200 -0.242716 4.980390 -88.094700 -3.796560 -63.325100 5.348090 -0.000007 -0.000001 -50.994300 -55.858500 -92.481000 24.328600 0.000019 0.000005 0.086049 3.400640 -1.441500 22.291600 -0.000001 0.000005 30.855900 3.677830 28.642600 12.994500 -0.242716 -4.980390 89.114200 2.725730 -71.989500 -5.348130 -0.000001 -0.000004 -65.816000 6.028440 0.485237 -24.328900 0.000322 -0.000009 1.538690 7.494430 -11.644900 -22.291500 -0.000108 -0.000004 6.476410 5.171120 3.433420 -2.192480 -6.469440 -0.000000 -174.594000 -4.729240 1.158490 39.081100 -0.000007 -0.000012 0.015356 -0.054724 15.674500 40.985400 -0.000006 -0.000013 0.157997 14.789300 -69.993000 11.754300 -0.000000 0.000003 -0.000940 0.182181 -9.186720 -2.192510 6.469440 -0.000001 175.008000 4.387370 -176.248000 -39.081100 -0.002282 -0.040193 0.010802 -0.035668 11.822900 -40.985400 0.000008 0.000006 -6.900600 6.210320 -68.547400 -11.754300 -0.000006 -0.000006 -0.010327 0.273731 -5.451750
0.000000 0.000000 0.000000 0.000000 0.000000 -0.000000 0.578019 92.865300 1.729420 88.958000 1.313940 1.959930 15.735700 0.000005 -0.000001 80.272100 87.554800 -75.560800 8.984550 -0.406207 -0.000000 -2.876930 -1.262930 9.392330 16.377300 -0.000001 -0.000001 -0.875148 3.745300 2.175620 6.456720 -0.000001 -0.000000 4.061110 5.143360 23.555500 12.994200 -0.242716 4.980390 -88.034000 -3.869520 -63.039100 5.348090 -0.000007 -0.000001 -51.857800 -57.421500 -98.703300 24.328600 0.000019 0.000005 0.551538 5.869630 -5.365220 22.291600 -0.000001 0.000005 33.465800 3.888580 25.792500 12.994500 -0.242716 -4.980390 89.116600 2.744470 -72.150800 -5.348130 -0.000001 -0.000004 -65.796800 5.943950 0.658737 -24.328900 0.000322 -0.000009 1.529420 7.193140 -12.045000 -22.291500 -0.000108 -0.000004 6.457910 5.175590 3.324190 -2.192480 -6.469440 -0.000000 -174.549000 -4.528700 1.000980 39.081100 -0.000007 -0.000012 0.016692 -0.059806 15.594600 40.985400 -0.000006 -0.000013 0.098938 14.416500 -69.942800 11.754300 -0.000000 0.000003 -0.000928 0.182012 -9.193580 -2.192510 6.469440 -0.000001 175.069000 4.585590 -176.327000 -39.081100 -0.002282 -0.040193 0.007599 -0.021015 11.467200 -40.985400 0.000008 0.000006 -7.111800 6.576960 -68.187300 -11.754300 -0.000006 -0.000006 -0.010285 0.273419 -5.464530
